<svg id="Capa_1" data-name="Capa 1" xmlns="http://www.w3.org/2000/svg" width="4.73cm" height="5.08cm" viewBox="0 0 134 144">
  <defs>
    <style>
      .cls-1 {
        fill: #fff;
      }
    </style>
  </defs>
  <title>twitter</title>
  <path class="cls-1" d="M67,6.8A65.2,65.2,0,1,0,132.2,72,65.2,65.2,0,0,0,67,6.8Zm38.87,42.47C104,51.17,102,53,100.06,54.84a1.5,1.5,0,0,0-.55,1.22,48.6,48.6,0,0,1-15.3,36.71,43.76,43.76,0,0,1-23.27,11.67,48.7,48.7,0,0,1-25.7-2.16A46.59,46.59,0,0,1,26.59,98c-.08,0-.16-.12-.37-.29A34.06,34.06,0,0,0,50.8,90.81C43.15,90.15,38,86.34,35.17,79.15a18.38,18.38,0,0,0,7.49-.36A16.86,16.86,0,0,1,33,72.85a16.53,16.53,0,0,1-3.69-10.69,17.47,17.47,0,0,0,7.51,2A16.84,16.84,0,0,1,29.91,54a16.61,16.61,0,0,1,1.83-12.12,48,48,0,0,0,34.53,17.5c-.11-1.09-.24-2.09-.3-3.09A16.75,16.75,0,0,1,85.51,39a16.45,16.45,0,0,1,8.88,4.53,1.24,1.24,0,0,0,1.33.34,34,34,0,0,0,9-3.42l.83-.42a13.28,13.28,0,0,1-2.72,5.12c-1.24,1.43-2.68,2.69-4.1,4.08,1.5-.32,3-.57,4.52-1s2.91-1,4.54-1.52A23.82,23.82,0,0,1,105.87,49.27Z"/>
</svg>
